<svg xmlns="http://www.w3.org/2000/svg" width="89.552" height="89.552" viewBox="0 0 89.552 89.552">
  <path id="iconfinder_camping-nature-26_808475" d="M67.91,27.985A127.179,127.179,0,0,1,67.537,4.1c-4.478,5.97-9.7,11.194-14.925,16.418C49.627,13.806,46.642,7.09,44.776,0,42.91,7.09,39.925,13.806,36.94,20.522A125.962,125.962,0,0,1,22.015,4.1a127.179,127.179,0,0,1-.373,23.881C14.552,25.373,6.716,22.388,0,18.657c10.075,17.91,14.179,39.179,20.149,52.985a25.765,25.765,0,0,0,24.627,17.91,26.092,26.092,0,0,0,25-18.284c5.6-13.433,9.7-34.7,19.776-52.612C82.836,22.388,75,25.373,67.91,27.985ZM63.433,14.552c0,5.224,0,10.075.373,14.552,1.119-.373-2.985,1.119-5.6,1.866-1.119-2.239-2.239-4.478-3.731-7.09A71.888,71.888,0,0,0,63.433,14.552ZM25.746,29.478c.373-4.478.373-9.328.373-14.925,2.985,3.358,5.97,6.716,8.955,9.7a64.839,64.839,0,0,1-3.731,7.09C28.358,30.224,24.627,29.1,25.746,29.478ZM13.06,31.716c5.6,2.239,10.821,4.1,15.3,5.6A148.83,148.83,0,0,0,20.9,53.358C19.03,47.761,16.418,39.925,13.06,31.716ZM44.776,82.089A18.475,18.475,0,0,1,26.119,63.433c0-10.448,7.463-18.657,18.657-44.776C55.97,44.776,63.433,52.985,63.433,63.433A18.475,18.475,0,0,1,44.776,82.089ZM68.657,53.358c-1.866-4.851-4.478-10.075-7.463-16.045,4.478-1.493,9.7-3.358,15.3-5.6C73.134,39.925,70.522,47.388,68.657,53.358Z"/>
</svg>
