<svg xmlns="http://www.w3.org/2000/svg" width="26.699" height="24.577" viewBox="0 0 26.699 24.577">
  <path id="lupa" d="M82.382,77.941a8.456,8.456,0,0,0,1.56-4.867c0-5.01-4.463-9.073-9.968-9.073S64,68.063,64,73.073s4.463,9.073,9.968,9.073a10.678,10.678,0,0,0,5.42-1.454l.452-.286,7.117,6.47,2.208-2.043-7.11-6.47ZM79.558,68a6.712,6.712,0,0,1,0,10.128,8.447,8.447,0,0,1-11.141,0,6.712,6.712,0,0,1,0-10.128,8.447,8.447,0,0,1,11.141,0Z" transform="matrix(0.998, -0.07, 0.07, 0.998, -68.308, -57.624)"/>
</svg>
